<svg width="40" height="40" viewBox="0 0 40 40" fill="none" xmlns="http://www.w3.org/2000/svg">
<path d="M6.25 7.5V24.4537L3.39875 27.3463C2.82778 27.9151 2.50474 28.6865 2.5 29.4925C2.50394 30.2889 2.82207 31.0516 3.38523 31.6148C3.9484 32.1779 4.71108 32.4961 5.5075 32.5H34.4925C35.2889 32.4961 36.0516 32.1779 36.6148 31.6148C37.1779 31.0516 37.4961 30.2889 37.5 29.4925C37.4951 28.6858 37.1721 27.9137 36.6013 27.3438L33.75 24.4525V7.5H6.25ZM8.75 10H31.25V23.75H8.75V10ZM20 11.25L18.125 22.5H20L21.875 11.25H20ZM15.1075 13.75L12.9587 16.335L12.5 16.875L12.9587 17.415L15.1075 20L16.465 18.9213L14.7625 16.875L16.4625 14.8287L15.1087 13.75H15.1075ZM24.8925 13.75L23.535 14.8287L25.2375 16.875L23.5375 18.9213L24.8938 20L27.0425 17.415L27.5 16.875L27.0412 16.335L24.8925 13.75ZM8.04625 26.25H31.9525L34.8438 29.1013C34.943 29.2075 34.9988 29.3471 35 29.4925C35.0036 29.5601 34.9929 29.6277 34.9687 29.6909C34.9445 29.7541 34.9072 29.8115 34.8594 29.8594C34.8115 29.9072 34.7541 29.9445 34.6909 29.9687C34.6277 29.9929 34.5601 30.0036 34.4925 30H5.5075C5.43991 30.0036 5.37231 29.9929 5.30911 29.9687C5.2459 29.9445 5.1885 29.9072 5.14064 29.8594C5.09277 29.8115 5.05552 29.7541 5.03129 29.6909C5.00706 29.6277 4.9964 29.5601 5 29.4925C5 29.355 5.05875 29.2 5.15625 29.1013L8.0475 26.25H8.04625Z" fill="#5182FF"/>
</svg>
