<svg width="16" height="20" viewBox="0 0 16 20" fill="none" xmlns="http://www.w3.org/2000/svg">
<path d="M8 0.25C7.17125 0.25 6.5 0.92125 6.5 1.75C6.5 1.8145 6.515 1.876 6.52325 1.9375C3.9305 2.59975 2 4.95475 2 7.75V14.5C2 14.9245 1.6745 15.25 1.25 15.25H0.5V16.75H5.891C5.80091 16.9899 5.7532 17.2437 5.75 17.5C5.75 18.7337 6.76625 19.75 8 19.75C9.23375 19.75 10.25 18.7337 10.25 17.5C10.2468 17.2437 10.1991 16.9899 10.109 16.75H15.5V15.25H14.75C14.3255 15.25 14 14.9245 14 14.5V7.96075C14 5.14225 12.116 2.62825 9.47675 1.9375C9.485 1.876 9.5 1.8145 9.5 1.75C9.5 0.92125 8.82875 0.25 8 0.25ZM7.6715 3.25C7.78025 3.241 7.889 3.25 8 3.25H8.141C10.5898 3.3235 12.5 5.47 12.5 7.96075V14.5C12.5 14.764 12.5555 15.013 12.641 15.25H3.35975C3.44958 15.01 3.49704 14.7562 3.5 14.5V7.75C3.49786 6.61145 3.92702 5.51435 4.70111 4.67944C5.47521 3.84454 6.53679 3.3338 7.67225 3.25H7.6715ZM8 16.75C8.42225 16.75 8.75 17.0785 8.75 17.5C8.75 17.9223 8.4215 18.25 8 18.25C7.57775 18.25 7.25 17.9215 7.25 17.5C7.25 17.0777 7.5785 16.75 8 16.75Z" fill="#1C1E26"/>
</svg>
