<svg width="26" height="34" viewBox="0 0 26 34" fill="none" xmlns="http://www.w3.org/2000/svg">
<path d="M0.5 0.75V33.25H25.5V8.9925L25.1488 8.60125L17.6488 1.10125L17.2575 0.75H0.5ZM3 3.25H15.5V10.75H23V30.75H3V3.25ZM18 5.0475L21.2038 8.25H18V5.0475ZM13 13.25L10.5 28.25H13L15.5 13.25H13ZM8.27375 16.2188L5.14875 19.9688L4.485 20.75L5.1475 21.5312L8.2725 25.2812L10.2262 23.7188L7.765 20.75L10.2275 17.7812L8.27375 16.2188ZM17.7262 16.2188L15.7738 17.7812L18.2337 20.75L15.7738 23.7188L17.7262 25.2812L20.8512 21.5312L21.5163 20.75L20.8512 19.9688L17.7262 16.2188Z" fill="#5182FF"/>
</svg>
