<svg width="37" height="37" viewBox="0 0 37 37" fill="none" xmlns="http://www.w3.org/2000/svg">
<path d="M14.5 0.75C13.85 0.75 13.175 0.975 12.7 1.45C12.225 1.925 12 2.6 12 3.25V4.5H0.75V29.5H14.75C14.5875 28.7 14.5 27.8625 14.5 27H3.25V18.8C3.9875 19.225 4.8375 19.5 5.75 19.5H17.0125C17.7125 18.55 18.5625 17.7 19.5125 17H5.75C4.2625 17 3.25 15.9875 3.25 14.5V7H30.75V14.5C30.75 14.7 30.7375 14.8875 30.7 15.0625C31.6 15.3375 32.45 15.7125 33.25 16.175V4.5H22V3.25C22 2.6 21.775 1.925 21.3 1.45C20.825 0.975 20.15 0.75 19.5 0.75H14.5ZM14.5 3.25H19.5V4.5H14.5V3.25ZM8.25 12V15.75H10.75V12H8.25ZM23.25 12V15.075C24.064 14.8206 24.9016 14.6489 25.75 14.5625V12H23.25ZM27 17C21.4875 17 17 21.4875 17 27C17 32.5125 21.4875 37 27 37C32.5125 37 37 32.5125 37 27C37 21.4875 32.5125 17 27 17ZM27 19.5C31.15 19.5 34.5 22.85 34.5 27C34.5 31.15 31.15 34.5 27 34.5C22.85 34.5 19.5 31.15 19.5 27C19.5 22.85 22.85 19.5 27 19.5ZM25.75 20.75V28.25H32V25.75H28.25V20.75H25.75Z" fill="#5182FF"/>
</svg>
