<svg width="30" height="26" viewBox="0 0 30 26" fill="none" xmlns="http://www.w3.org/2000/svg">
<path d="M15 0.5C6.72875 0.5 1.75128e-06 7.22875 1.75128e-06 15.5C-0.00168449 18.9809 1.21438 22.3527 3.4375 25.0312L3.78875 25.5H26.2125L26.5638 25.0312C28.7864 22.3526 30.002 18.9808 30 15.5C30 7.22875 23.2713 0.5 15 0.5ZM15 3C21.9188 3 27.5 8.58125 27.5 15.5C27.5 18.3325 26.5088 20.905 24.9213 23H5.07875C3.49125 20.905 2.5 18.3325 2.5 15.5C2.5 8.58125 8.08125 3 15 3ZM15 4.25C14.3125 4.25 13.75 4.8125 13.75 5.5C13.75 6.1875 14.3125 6.75 15 6.75C15.6875 6.75 16.25 6.1875 16.25 5.5C16.25 4.8125 15.6875 4.25 15 4.25ZM10 5.57875C9.3125 5.57875 8.75 6.14 8.75 6.82875C8.75 7.51625 9.3125 8.07875 10 8.07875C10.6875 8.07875 11.25 7.51625 11.25 6.82875C11.25 6.14 10.6875 5.57875 10 5.57875ZM20 5.57875C19.3125 5.57875 18.75 6.14 18.75 6.82875C18.75 7.51625 19.3125 8.07875 20 8.07875C20.6875 8.07875 21.25 7.51625 21.25 6.82875C21.25 6.14 20.6875 5.57875 20 5.57875ZM6.3275 9.25C5.64 9.25 5.0775 9.8125 5.0775 10.5C5.0775 11.1875 5.64 11.75 6.3275 11.75C7.01625 11.75 7.5775 11.1875 7.5775 10.5C7.5775 9.8125 7.01625 9.25 6.3275 9.25ZM23.32 9.28875L16.25 13.3513C15.8719 13.1252 15.4405 13.004 15 13C14.337 13 13.7011 13.2634 13.2322 13.7322C12.7634 14.2011 12.5 14.837 12.5 15.5C12.5 16.163 12.7634 16.7989 13.2322 17.2678C13.7011 17.7366 14.337 18 15 18C15.6564 18.0001 16.2865 17.742 16.7542 17.2815C17.222 16.821 17.4898 16.1951 17.5 15.5388V15.5L24.57 11.4763L23.32 9.28875ZM5 14.25C4.3125 14.25 3.75 14.8125 3.75 15.5C3.75 16.1875 4.3125 16.75 5 16.75C5.6875 16.75 6.25 16.1875 6.25 15.5C6.25 14.8125 5.6875 14.25 5 14.25ZM25 14.25C24.3125 14.25 23.75 14.8125 23.75 15.5C23.75 16.1875 24.3125 16.75 25 16.75C25.6875 16.75 26.25 16.1875 26.25 15.5C26.25 14.8125 25.6875 14.25 25 14.25ZM6.3275 19.25C5.64 19.25 5.0775 19.8125 5.0775 20.5C5.0775 21.1875 5.64 21.75 6.3275 21.75C7.01625 21.75 7.5775 21.1875 7.5775 20.5C7.5775 19.8125 7.01625 19.25 6.3275 19.25ZM23.6725 19.25C22.9838 19.25 22.4225 19.8125 22.4225 20.5C22.4225 21.1875 22.9838 21.75 23.6725 21.75C24.36 21.75 24.9225 21.1875 24.9225 20.5C24.9225 19.8125 24.36 19.25 23.6725 19.25Z" fill="#5182FF"/>
</svg>
