<svg width="34" height="26" viewBox="0 0 34 26" fill="none" xmlns="http://www.w3.org/2000/svg">
<path d="M11.375 0.5L10.9838 1.0075L9.5 3H0.75V25.5H33.25V3H24.5L23.015 1.0075L22.625 0.5H11.375ZM12.625 3H21.375L22.86 4.9925L23.25 5.5H30.75V23H3.25V5.5H10.75L11.1412 4.9925L12.625 3ZM7 6.75C6.3125 6.75 5.75 7.3125 5.75 8C5.75 8.6875 6.3125 9.25 7 9.25C7.6875 9.25 8.25 8.6875 8.25 8C8.25 7.3125 7.6875 6.75 7 6.75ZM17 6.75C12.875 6.75 9.5 10.125 9.5 14.25C9.5 18.375 12.875 21.75 17 21.75C21.125 21.75 24.5 18.375 24.5 14.25C24.5 10.125 21.125 6.75 17 6.75ZM17 9.25C19.7788 9.25 22 11.4712 22 14.25C22 17.0288 19.7788 19.25 17 19.25C14.2212 19.25 12 17.0288 12 14.25C12 11.4712 14.2212 9.25 17 9.25Z" fill="#5182FF"/>
</svg>
