<svg width="40" height="40" viewBox="0 0 40 40" fill="none" xmlns="http://www.w3.org/2000/svg">
<path d="M11.0162 3.75L10.1562 4.64875L4.64875 10.1562L3.75 11.0162L12.735 20L6.485 26.25L6.40625 26.6412L5.03875 33.5162L4.64875 35.3513L6.485 34.9612L13.36 33.5938L13.75 33.515L20 27.265L28.945 36.2112L29.805 35.3125L35.3125 29.805L36.2112 28.945L27.265 20L33.4375 13.8275C33.9157 13.3511 34.2951 12.785 34.554 12.1617C34.8129 11.5383 34.9461 10.87 34.9461 10.195C34.9461 9.52003 34.8129 8.85169 34.554 8.22834C34.2951 7.60499 33.9157 7.03888 33.4375 6.5625C32.962 6.08203 32.3964 5.70012 31.7731 5.43865C31.1498 5.17717 30.4809 5.04128 29.805 5.03875C29.1288 5.04111 28.4598 5.17693 27.8362 5.43841C27.2127 5.69989 26.6469 6.08189 26.1713 6.5625L20 12.735L11.0162 3.75ZM11.0162 7.305L13.4375 9.765L11.6013 11.6025L13.3987 13.3987L15.235 11.5625L18.2025 14.5312L14.4925 18.2425L7.26625 11.0162L11.0162 7.305ZM29.8038 7.46125C30.4538 7.46125 31.1138 7.75375 31.6788 8.32C32.8075 9.44875 32.8075 10.9037 31.6788 12.0312L30.86 12.8513L27.1475 9.14L27.9688 8.32C28.535 7.75375 29.1562 7.46125 29.805 7.46125H29.8038ZM25.3912 10.8987L29.1013 14.61L13.985 29.725C13.1576 28.1366 11.8614 26.8413 10.2725 26.015L25.3912 10.8987ZM25.5075 21.7575L28.4763 24.7263L26.6013 26.6013L28.3987 28.3987L30.2737 26.5237L32.6562 28.9062L28.9062 32.6562L21.7575 25.5075L25.5075 21.7575ZM8.6725 28.0075C10.1712 28.6373 11.3632 29.8298 11.9925 31.3287L7.85125 32.1487L8.6725 28.0075Z" fill="#5182FF"/>
</svg>
