<svg width="31" height="31" viewBox="0 0 31 31" fill="none" xmlns="http://www.w3.org/2000/svg">
<path d="M30.75 0.726318L29.265 1.03882L9.265 4.78882L8.25 4.94507V21.7038C7.49489 21.2492 6.63138 21.0061 5.75 21.0001C3 21.0001 0.75 23.2501 0.75 26.0001C0.75 28.7501 3 31.0001 5.75 31.0001C8.5 31.0001 10.75 28.7501 10.75 26.0001V12.0151L28.25 8.73507V17.9526C27.4948 17.4984 26.6313 17.2558 25.75 17.2501C23 17.2501 20.75 19.5001 20.75 22.2501C20.75 25.0001 23 27.2501 25.75 27.2501C28.5 27.2501 30.75 25.0001 30.75 22.2501V0.726318ZM28.25 3.73382V6.23382L10.75 9.51632V7.01632L28.25 3.73382ZM25.75 19.7501C27.1462 19.7501 28.25 20.8538 28.25 22.2501C28.25 23.6463 27.1462 24.7501 25.75 24.7501C24.3538 24.7501 23.25 23.6463 23.25 22.2501C23.25 20.8538 24.3538 19.7501 25.75 19.7501ZM5.75 23.5001C7.14625 23.5001 8.25 24.6038 8.25 26.0001C8.25 27.3963 7.14625 28.5001 5.75 28.5001C4.35375 28.5001 3.25 27.3963 3.25 26.0001C3.25 24.6038 4.35375 23.5001 5.75 23.5001Z" fill="#5182FF"/>
</svg>
