<svg width="36" height="26" viewBox="0 0 36 26" fill="none" xmlns="http://www.w3.org/2000/svg">
<path d="M4.25 0.5V17.4537L1.39875 20.3438C0.827977 20.9138 0.50503 21.6859 0.5 22.4925C0.503617 23.289 0.821639 24.0519 1.38487 24.6151C1.94811 25.1784 2.71098 25.4964 3.5075 25.5H32.4925C33.289 25.4964 34.0519 25.1784 34.6151 24.6151C35.1784 24.0519 35.4964 23.289 35.5 22.4925C35.5 21.6925 35.1675 20.91 34.6013 20.3438L31.75 17.4525V0.5H4.25ZM6.75 3H29.25V16.75H6.75V3ZM6.04625 19.25H29.9525L32.8438 22.1013C32.9429 22.2075 32.9987 22.3471 33 22.4925C33.0038 22.5601 32.9933 22.6278 32.9691 22.6911C32.945 22.7544 32.9077 22.8119 32.8598 22.8598C32.8119 22.9077 32.7544 22.945 32.6911 22.9691C32.6278 22.9933 32.5601 23.0038 32.4925 23H3.5075C3.43986 23.0038 3.37217 22.9933 3.30888 22.9691C3.24558 22.945 3.1881 22.9077 3.1402 22.8598C3.09229 22.8119 3.05504 22.7544 3.03088 22.6911C3.00672 22.6278 2.9962 22.5601 3 22.4925C3 22.355 3.05875 22.1988 3.15625 22.1013L6.04625 19.25Z" fill="#5182FF"/>
</svg>
