<svg width="21" height="20" viewBox="0 0 21 20" fill="none" xmlns="http://www.w3.org/2000/svg">
<g clip-path="url(#clip0)">
<path d="M10.7144 0.00012207C5.18108 0.00012207 0.714417 4.46679 0.714417 10.0001C0.714417 15.5335 5.18108 20.0001 10.7144 20.0001C16.2477 20.0001 20.7144 15.5335 20.7144 10.0001C20.7144 4.46679 16.2477 0.00012207 10.7144 0.00012207ZM10.7144 1.17512C11.7144 1.17512 12.6811 1.35846 13.5727 1.66679L10.8227 7.60846C10.7894 7.64179 10.7894 7.71679 10.7144 7.71679C10.6394 7.71679 10.6394 7.64179 10.6061 7.60846L7.85608 1.66679C8.74775 1.35846 9.71442 1.18346 10.7144 1.18346V1.17512ZM6.46442 2.28346L9.64775 9.14179C9.71442 9.28346 9.78942 9.32512 9.88108 9.32512H11.5477C11.6477 9.32512 11.7144 9.28346 11.7894 9.14179L14.9311 2.28346C16.2477 3.03346 17.3811 4.10846 18.1811 5.39179L13.7144 14.0335C13.6811 14.1085 13.6311 14.1418 13.6061 14.1418C13.5394 14.1418 13.5394 14.0751 13.4977 14.0335L11.7894 10.2501C11.7144 10.1085 11.6477 10.0751 11.5477 10.0751H9.88108C9.78942 10.0751 9.71442 10.1085 9.63942 10.2501L7.93108 14.0335C7.88942 14.0751 7.89775 14.1418 7.82275 14.1418C7.74775 14.1418 7.74775 14.0751 7.71442 14.0335L3.21442 5.39179C3.99775 4.10846 5.14775 3.03346 6.46442 2.28346V2.28346ZM2.43108 7.10846L7.57275 17.1085C7.63942 17.2501 7.71442 17.3585 7.89775 17.3585C8.07275 17.3585 8.13942 17.2501 8.21442 17.1085L10.6061 11.7835C10.6394 11.7168 10.6811 11.6668 10.7144 11.6668C10.7894 11.6668 10.7894 11.7501 10.8227 11.7835L13.2477 17.1085C13.3227 17.2501 13.3894 17.3585 13.5727 17.3585C13.7477 17.3585 13.8227 17.2501 13.8894 17.1085L19.0477 7.10846C19.3561 8.00012 19.5394 8.96679 19.5394 10.0001C19.4977 14.8251 15.5394 18.8251 10.7144 18.8251C5.88942 18.8251 1.93108 14.8251 1.93108 10.0001C1.93108 9.00012 2.10608 8.04179 2.43108 7.10846Z" fill="#45454B"/>
</g>
<defs>
<clipPath id="clip0">
<rect width="20" height="20" fill="white" transform="translate(0.714417 0.00012207)"/>
</clipPath>
</defs>
</svg>
