<svg width="31" height="20" viewBox="0 0 31 20" fill="none" xmlns="http://www.w3.org/2000/svg">
<path d="M28.37 19.9913C26.9658 19.9913 26.1329 19.2831 26.0692 18.2629H27.4119C27.4119 18.603 27.6031 19.0557 28.4337 19.0838C29.0095 19.0838 29.3281 18.7438 29.3281 18.4882C29.2644 18.0918 28.7524 18.0637 28.2425 17.977C27.6668 17.8947 27.2207 17.7799 26.8999 17.6392C26.4538 17.4117 26.1967 16.9287 26.1967 16.4197C26.1967 15.5122 26.9658 14.804 28.3063 14.804C29.5852 14.804 30.4159 15.4559 30.4774 16.4479H29.2007C29.2007 16.1945 29.1369 15.7678 28.37 15.7678C27.858 15.7678 27.5393 15.8523 27.4756 16.2205C27.4756 16.7316 28.5612 16.7035 29.3918 16.9006C30.1588 17.0998 30.6708 17.5807 30.6708 18.2629C30.6708 19.5105 29.6489 19.9913 28.37 19.9913" fill="#45454B"/>
<path d="M3.90332 11.6212L8.31151 9.09792L10.676 13.0962H4.73398" fill="#45454B"/>
<path d="M13.173 19.8408V14.7942Z" fill="#45454B"/>
<path d="M13.173 19.8408V14.7942" stroke="#45454B"/>
<path d="M1.85731 17.3924C1.85731 18.1851 2.56051 18.837 3.32524 18.837C4.15809 18.837 4.79537 18.1851 4.79537 17.3924C4.79537 16.6278 4.15809 15.9477 3.32524 15.9477C2.56051 15.9477 1.85731 16.6278 1.85731 17.3924V17.3924ZM3.26151 20.0001C1.85731 20.0001 0.644287 18.837 0.644287 17.3924C0.644287 15.9477 1.85731 14.8128 3.26151 14.8128C3.83726 14.8128 4.34928 14.9557 4.79537 15.2654V14.8691H6.07432V19.8853H4.79537V19.5734C4.413 19.8572 3.83726 20.0001 3.26151 20.0001" fill="#45454B"/>
<path d="M20.3234 13.0951L14.1902 2.55152L18.5984 9.88921e-05L26.2654 13.0951" fill="#45454B"/>
<path d="M7.73557 17.3924C7.73557 18.1851 8.37505 18.837 9.2057 18.837C9.97043 18.837 10.6758 18.1851 10.6758 17.3924C10.6758 16.6278 9.97043 15.9477 9.2057 15.9477C8.37505 15.9477 7.73557 16.6278 7.73557 17.3924ZM9.14198 20.0001C7.67185 20.0001 6.52255 18.837 6.52255 17.3924C6.52255 15.9477 7.67185 14.8128 9.14198 14.8128C9.71552 14.8128 10.2275 14.9557 10.6758 15.2654V13.1407H11.9526V19.8853H10.6758V19.5734C10.2275 19.8572 9.71552 20.0001 9.14198 20.0001" fill="#45454B"/>
<path d="M9.07899 7.11464L13.5509 4.62168L18.4711 13.0947H13.8058V14.3423H12.5291V13.0947" fill="#45454B"/>
<path d="M29.8424 14.3816C29.5215 14.3816 29.2029 14.0979 29.2029 13.7578C29.2029 13.4178 29.5215 13.134 29.8424 13.134C30.2247 13.134 30.4818 13.4178 30.4818 13.7578C30.4818 14.0979 30.2247 14.3816 29.8424 14.3816ZM29.8424 13.2207C29.5215 13.2207 29.3303 13.4741 29.3303 13.7578C29.3303 14.0415 29.5215 14.2971 29.8424 14.2971C30.161 14.2971 30.3522 14.0415 30.3522 13.7578C30.3522 13.4741 30.161 13.2207 29.8424 13.2207Z" fill="#45454B"/>
<path d="M29.9742 14.1001L29.8467 13.8164H29.7192V14.1001H29.6226V13.42H29.9104C29.9742 13.42 30.1016 13.5066 30.1016 13.6193C30.1016 13.7319 30.0379 13.7882 29.9742 13.8164L30.1016 14.1001H29.9742ZM29.8467 13.5066H29.7192V13.7319H29.8467C29.9742 13.7319 29.9742 13.7037 29.9742 13.6193C29.9742 13.5608 29.9742 13.5066 29.8467 13.5066" fill="#45454B"/>
<path d="M21.404 17.3924C21.404 18.1851 22.0435 18.837 22.8741 18.837C23.6411 18.837 24.3421 18.1851 24.3421 17.3924C24.3421 16.6278 23.6411 15.9477 22.8741 15.9477C22.0435 15.9477 21.404 16.6278 21.404 17.3924V17.3924ZM22.8082 20.0001C21.3403 20.0001 20.191 18.837 20.191 17.3924C20.191 15.9477 21.3403 14.8128 22.8082 14.8128C23.384 14.8128 23.896 14.9557 24.3421 15.2654V14.8691H25.5573V19.8853H24.3421V19.5734C23.896 19.8572 23.384 20.0001 22.8082 20.0001" fill="#45454B"/>
<path d="M15.5301 17.3924C15.5301 18.1851 16.2333 18.837 17.0002 18.837C17.8309 18.837 18.4704 18.1851 18.4704 17.3924C18.4704 16.6278 17.8309 15.9477 17.0002 15.9477C16.2333 15.9477 15.5301 16.6278 15.5301 17.3924ZM18.4704 13.1407H19.7471V19.8853H18.4704V19.5734C18.0858 19.8572 17.5738 20.0001 17.0002 20.0001C15.5301 20.0001 14.3171 18.837 14.3171 17.3924C14.3171 15.9477 15.5301 14.8128 17.0002 14.8128C17.5738 14.8128 18.0858 14.9557 18.4704 15.2654V13.1407Z" fill="#45454B"/>
</svg>
