<svg width="20" height="20" viewBox="0 0 20 20" fill="none" xmlns="http://www.w3.org/2000/svg">
<g clip-path="url(#clip0)">
<path d="M10.005 0.00012207C15.5242 0.00012207 20.005 4.48096 20.005 10.0001C20.005 15.5193 15.5242 20.0001 10.005 20.0001C4.48584 20.0001 0.00500488 15.5193 0.00500488 10.0001C0.00500488 4.48096 4.48584 0.00012207 10.005 0.00012207V0.00012207ZM2.70917 14.616C3.48758 15.8467 4.56475 16.8605 5.84041 17.563C7.11607 18.2654 8.54873 18.6337 10.005 18.6335C13.0725 18.6335 15.7692 17.0301 17.3008 14.616L10.005 11.836L2.70917 14.616ZM11.595 9.08179L17.6508 14.011C18.3014 12.7743 18.6404 11.3975 18.6383 10.0001C18.6383 5.35262 14.9575 1.55762 10.355 1.37346L11.595 9.08179V9.08179ZM9.655 1.37346C5.0525 1.55762 1.37167 5.35262 1.37167 10.0001C1.37167 11.4476 1.72834 12.8118 2.35917 14.011L8.415 9.08179L9.655 1.37346V1.37346Z" fill="#45454B"/>
</g>
<defs>
<clipPath id="clip0">
<rect width="20" height="20" fill="white" transform="translate(0 0.00012207)"/>
</clipPath>
</defs>
</svg>
