<svg width="84" height="20" viewBox="0 0 84 20" fill="none" xmlns="http://www.w3.org/2000/svg">
<path d="M36.1757 7.14049H38.7232V8.27794H38.7719C39.3885 7.38419 40.1836 6.89679 41.3357 6.89679C43.153 6.89679 44.224 8.1967 44.224 10.0491V15.4601H41.5791V10.5854C41.5791 9.70786 41.141 9.10659 40.281 9.10659C39.4048 9.10659 38.8206 9.83786 38.8206 10.8615V15.4601H36.1757V7.14049Z" fill="#45454B"/>
<path d="M35.8874 4.91459C35.8874 4.03708 35.1771 3.32581 34.3009 3.32581C33.4247 3.32581 32.7143 4.03708 32.7143 4.91459C32.7143 5.79202 33.4247 6.5033 34.3009 6.5033C35.1771 6.5033 35.8874 5.79202 35.8874 4.91459Z" fill="#45454B"/>
<path d="M62.826 7.02028C62.7506 7.01348 62.664 7.01044 62.5628 7.01044C61.5568 7.01044 60.8753 7.44916 60.2911 8.44036H60.2425V7.14045H57.7111V15.46H60.356V11.7227C60.356 9.99103 61.3136 9.1886 62.826 9.32861V7.02028Z" fill="#45454B"/>
<path d="M75.8056 10.2114C74.7508 10.0165 73.8097 9.93528 73.8097 9.35033C73.8097 8.8303 74.3128 8.58659 74.9618 8.58659C75.6919 8.58659 76.195 8.81406 76.2924 9.56157H78.7264C78.5966 7.9204 77.3309 6.89665 74.9781 6.89665C73.0146 6.89665 71.392 7.80663 71.392 9.56157C71.392 11.5114 72.9335 11.9014 74.3777 12.1452C75.4811 12.3402 76.4871 12.4214 76.4871 13.1688C76.4871 13.7051 75.9841 13.9976 75.189 13.9976C74.3913 13.9976 73.8637 13.6596 73.702 12.9739H71.1817C71.3672 14.6842 72.8663 15.72 75.2052 15.72C77.3796 15.72 78.9859 14.7775 78.9859 12.9577C78.9859 10.8289 77.266 10.4552 75.8056 10.2114Z" fill="#45454B"/>
<path d="M66.9289 8.78152C67.7889 8.78152 68.4055 9.41524 68.5029 10.4065H65.2252C65.4036 9.41524 65.9229 8.78152 66.9289 8.78152ZM67.075 13.8025C65.9878 13.8025 65.3712 13.1038 65.2089 11.9826H71.1803C71.1965 10.2928 70.7098 8.84652 69.7199 7.93663C69.0059 7.28668 68.0648 6.89665 66.8802 6.89665C64.3489 6.89665 62.6127 8.79775 62.6127 11.284C62.6127 13.8025 64.3003 15.7037 67.0425 15.7037C68.0971 15.7037 68.941 15.4275 69.6387 14.94C70.3689 14.4363 70.8557 13.7213 71.0342 12.9739H68.4542C68.227 13.4938 67.7727 13.8025 67.075 13.8025Z" fill="#45454B"/>
<path d="M83.6442 13.4982C83.5217 13.503 83.3571 13.5102 83.206 13.5102C82.6379 13.5102 82.281 13.3476 82.281 12.6977V8.79783H83.6442V7.14044H82.281V4.50807H79.701V7.14044H78.8892V8.79783H79.701V13.2664C79.701 15.0539 80.8044 15.5575 82.346 15.5575C82.9341 15.5575 83.3787 15.5134 83.6442 15.4615V13.4982Z" fill="#45454B"/>
<path d="M48.9473 13.502C48.8418 13.5061 48.72 13.5102 48.6062 13.5102C48.0384 13.5102 47.6813 13.3476 47.6813 12.6977V8.79783H48.9473V7.14044H47.6813V4.50807H45.1013V7.14044H44.241V8.79783H45.1013V13.2664C45.1013 15.0539 46.2047 15.5575 47.7462 15.5575C48.2678 15.5575 48.6762 15.5227 48.9473 15.4787V13.502Z" fill="#45454B"/>
<path d="M54.7084 10.4065C54.6111 9.41532 53.9944 8.78152 53.1344 8.78152C52.1284 8.78152 51.6091 9.41532 51.4306 10.4065H54.7084ZM48.8182 11.284C48.8182 8.79783 50.5544 6.89673 53.0858 6.89673C54.2702 6.89673 55.2114 7.28667 55.9254 7.93663C56.9152 8.8466 57.4019 10.2928 57.3857 11.9827H51.4145C51.5766 13.1038 52.1933 13.8026 53.2805 13.8026C53.9782 13.8026 54.4326 13.4938 54.6596 12.9739H57.2397C57.0612 13.7213 56.5744 14.4363 55.8442 14.9401C55.1465 15.4275 54.3027 15.7037 53.248 15.7037C50.5057 15.7037 48.8182 13.8026 48.8182 11.284" fill="#45454B"/>
<path d="M28.3851 9.30156C29.4237 9.30156 30.0078 8.68407 30.0078 7.75778C30.0078 6.83166 29.4074 6.26294 28.3851 6.26294H26.3567V9.30156H28.3851ZM23.679 3.84181H28.272C29.6836 3.84181 30.7222 4.23175 31.4361 4.91425C32.1826 5.6129 32.6045 6.60419 32.6045 7.77409C32.6045 10.0002 31.0629 11.5765 28.6776 11.5765H26.3567V15.46H23.679V3.84181V3.84181Z" fill="#45454B"/>
<path d="M20.0484 10.0002C20.0484 15.523 15.5775 20.0001 10.0624 20.0001C4.5474 20.0001 0.0765228 15.523 0.0765228 10.0002C0.0765228 4.47731 4.5474 0.000244141 10.0624 0.000244141C15.5775 0.000244141 20.0484 4.47731 20.0484 10.0002Z" fill="white"/>
<path d="M10.0622 -5.29672e-07C4.54717 -5.29672e-07 0.0762939 4.47715 0.0762939 9.99994C0.0762939 14.2364 2.70841 17.858 6.42309 19.3151C6.33583 18.5239 6.25692 17.3071 6.45771 16.4434C6.63919 15.6629 7.62868 11.4727 7.62868 11.4727C7.62868 11.4727 7.32998 10.8737 7.32998 9.98805C7.32998 8.59756 8.1348 7.55947 9.1369 7.55947C9.98887 7.55947 10.4004 8.2 10.4004 8.96807C10.4004 9.82608 9.85487 11.1089 9.57336 12.2976C9.3381 13.2929 10.0718 14.1046 11.0521 14.1046C12.8269 14.1046 14.1912 12.2306 14.1912 9.5254C14.1912 7.13108 12.4732 5.45705 10.0201 5.45705C7.17871 5.45705 5.51095 7.59119 5.51095 9.79673C5.51095 10.6562 5.84157 11.5778 6.25413 12.0788C6.33574 12.1779 6.3477 12.2646 6.32339 12.3657C6.24759 12.6815 6.07912 13.3607 6.04605 13.4997C6.00251 13.6828 5.90133 13.7216 5.71208 13.6334C4.4649 13.0521 3.68513 11.2261 3.68513 9.75943C3.68513 6.60498 5.97385 3.70801 10.2832 3.70801C13.7473 3.70801 16.4394 6.17996 16.4394 9.48351C16.4394 12.9299 14.2694 15.7035 11.2576 15.7035C10.2457 15.7035 9.29439 15.1771 8.96876 14.5552C8.96876 14.5552 8.46804 16.4645 8.34665 16.9324C8.12121 17.801 7.51261 18.8897 7.10553 19.554C8.03985 19.8436 9.03277 19.9999 10.0622 19.9999C15.5773 19.9999 20.0482 15.5227 20.0482 9.99994C20.0482 4.47715 15.5773 -5.29672e-07 10.0622 -5.29672e-07Z" fill="#45454B"/>
<path d="M32.9147 7.4634H35.4147V15.4634H32.9147V7.4634Z" fill="#45454B"/>
</svg>
