<svg width="112" height="20" viewBox="0 0 112 20" fill="none" xmlns="http://www.w3.org/2000/svg">
<path d="M104.067 9.79263C104.78 9.62934 105.525 9.6794 106.209 9.93656C106.894 10.1937 107.488 10.6466 107.917 11.2388L101.254 12.746C101.484 11.3356 102.559 10.1335 104.067 9.79263ZM107.954 15.3389C107.427 16.1016 106.632 16.6372 105.727 16.8383C104.209 17.1819 102.695 16.5529 101.861 15.3686L108.544 13.8564L109.632 13.6101L111.714 13.1394C111.702 12.6922 111.644 12.2474 111.541 11.8119C110.694 8.21549 107.032 5.97346 103.363 6.80344C99.6939 7.63399 97.406 11.2226 98.2533 14.8184C99.1001 18.4149 102.761 20.6575 106.431 19.8275C108.593 19.3378 110.274 17.891 111.118 16.0492L107.954 15.3389V15.3389ZM92.2262 19.6456V10.1111H90.1683V6.86277H92.2262V2.39158H95.7208V6.86277H98.3457V10.1111H95.7208V19.6456H92.2262ZM85.5505 19.6456H88.9253V6.86277H85.5505V19.6456ZM85.1117 2.37815C85.1117 1.19501 86.0447 0.30738 87.2519 0.30738C88.4591 0.30738 89.3647 1.19501 89.3647 2.37815C89.3647 3.56185 88.4591 4.47579 87.2519 4.47579C86.0447 4.47579 85.1117 3.56185 85.1117 2.37815V2.37815ZM84.3758 6.89859C82.6503 6.98813 81.6329 7.25286 80.598 8.00281V6.86277H77.2249V19.6456H80.5975V13.3773C80.5975 11.405 81.0788 10.2829 84.3758 10.1726V6.89859V6.89859ZM65.5704 13.4551C65.6543 15.3205 67.2779 16.8847 69.2653 16.8847C71.2812 16.8847 72.9328 15.2382 72.9328 13.2906C72.9328 11.3698 71.2812 9.72379 69.2653 9.72379C67.2785 9.72379 65.6543 11.3149 65.5704 13.1534V13.4551ZM62.2795 19.6456V0.763509L65.6543 0.00012207V7.8142C66.697 6.9803 67.9322 6.63051 69.2765 6.63051C73.1181 6.63051 76.1912 9.58891 76.1912 13.3006C76.1912 16.9849 73.1186 19.9971 69.2765 19.9971C67.9322 19.9971 66.697 19.6478 65.6543 18.8139V19.6461H62.2795V19.6456ZM55.0962 19.6456V10.0456H53.0383V6.86277H55.0962V2.38822L58.5908 1.59741V6.86277H61.2156V10.0456H58.5908V19.6456H55.0962V19.6456ZM48.9119 19.6456V12.816C48.9119 10.3417 47.567 9.80382 46.2221 9.80382C44.8778 9.80382 43.5335 10.3148 43.5335 12.7622V19.6456H40.1587V6.86277H43.5335V7.81364C44.2739 7.2758 45.1794 6.62995 46.9637 6.62995C49.8169 6.62995 52.2867 8.27089 52.2867 12.2781V19.6456H48.9119ZM31.612 9.79263C33.1197 9.45123 34.6241 10.0697 35.4614 11.2388L28.7991 12.746C29.0286 11.3356 30.1048 10.1335 31.612 9.79263V9.79263ZM35.4989 15.3389C34.9719 16.1016 34.1763 16.6372 33.2714 16.8383C32.5539 17.0026 31.8039 16.9507 31.1159 16.6891C30.4279 16.4276 29.8328 15.9681 29.4058 15.3686L36.0893 13.8564L37.1779 13.6101L39.2593 13.1394C39.2467 12.6922 39.1885 12.2474 39.0858 11.8119C38.2384 8.21549 34.5771 5.97346 30.9079 6.80344C27.2387 7.63399 24.9508 11.2226 25.7981 14.8184C26.6455 18.4149 30.3063 20.6575 33.976 19.8275C36.138 19.3378 37.8198 17.891 38.6632 16.0492L35.4989 15.3389V15.3389ZM17.8481 19.6456L12.6068 6.86277H16.2838L19.6043 15.532L22.9517 6.86277H26.6287L21.388 19.6456H17.8481ZM5.98983 9.78927C6.70266 9.62594 7.44779 9.67597 8.13238 9.93313C8.81698 10.1903 9.41077 10.6432 9.83978 11.2355L3.17694 12.7432C3.4064 11.3328 4.48264 10.1307 5.98983 9.78927ZM9.87672 15.3356C9.34988 16.0985 8.55428 16.6342 7.64924 16.8355C6.13254 17.1786 4.61808 16.5501 3.78362 15.3658L10.4672 13.8536L11.5557 13.6073L13.6371 13.1361C13.6244 12.689 13.5663 12.2444 13.4636 11.8091C12.6163 8.21269 8.95551 5.9701 5.28576 6.80009C1.61658 7.63063 -0.670221 11.2198 0.175996 14.8162C1.02333 18.4126 4.68468 20.6547 8.35386 19.8247C10.5159 19.3355 12.1977 17.8882 13.0416 16.0469L9.87672 15.3361V15.3356V15.3356Z" fill="#45454B"/>
</svg>
