<svg width="123" height="20" viewBox="0 0 123 20" fill="none" xmlns="http://www.w3.org/2000/svg">
<path d="M48.3174 1.83194C48.3174 0.819217 49.1427 0.000101964 50.1585 0.000101964C51.1777 0.000101964 52.0062 0.819217 52.0062 1.83194C52.0062 2.84335 51.1777 3.66333 50.1585 3.66333C49.1427 3.66333 48.3174 2.84335 48.3174 1.83194Z" fill="#45454B"/>
<path d="M77.4205 14.0163C77.4205 13.0031 78.2452 12.1831 79.261 12.1831C80.2799 12.1831 81.1082 13.0031 81.1082 14.0163C81.1082 15.0268 80.2799 15.8477 79.261 15.8477C78.2452 15.8477 77.4205 15.0268 77.4205 14.0163Z" fill="#45454B"/>
<path d="M18.0449 13.2245C16.4564 13.2245 15.3524 11.9748 15.3524 10.1889C15.3524 8.40356 16.4564 7.15469 18.0449 7.15469C19.6426 7.15469 20.7587 8.40356 20.7587 10.1889C20.7587 12.003 19.6659 13.2245 18.0449 13.2245ZM18.0449 4.48682C14.6841 4.48682 12.245 6.88555 12.245 10.1889C12.245 13.4923 14.6841 15.8906 18.0449 15.8906C21.4184 15.8906 23.8676 13.4923 23.8676 10.1889C23.8676 6.88555 21.4184 4.48682 18.0449 4.48682" fill="#45454B"/>
<path d="M44.745 10.4741C44.6144 10.2306 44.4646 10.0244 44.305 9.86079L44.2034 9.754L44.3104 9.65242C44.4646 9.49138 44.6223 9.30038 44.7744 9.07901L47.7403 4.71169H44.1398L41.9114 8.12792C41.7853 8.3111 41.5306 8.40357 41.1494 8.40357H40.6415V1.94484C40.6415 0.653003 39.829 0.477197 38.9513 0.477197H37.4487L37.4512 15.7227H40.6415V11.1496H40.9404C41.304 11.1496 41.5517 11.1913 41.6653 11.387L43.4251 14.6774C43.9167 15.5703 44.4067 15.7227 45.3283 15.7227H47.7732L45.9523 12.7392L44.745 10.4741" fill="#45454B"/>
<path d="M60.2327 4.46252C58.61 4.46252 57.5746 5.17658 56.9943 5.78039L56.8006 5.97443L56.7322 5.71052C56.5618 5.06372 55.9873 4.70777 55.1226 4.70777H53.6928L53.7018 15.7188H56.8704V10.6439C56.8704 10.1477 56.9355 9.71711 57.0679 9.32426C57.4207 8.1353 58.4045 7.39605 59.6342 7.39605C60.6233 7.39605 61.0097 7.91305 61.0097 9.24916V14.0449C61.0097 15.1853 61.5422 15.7188 62.6943 15.7188H64.2022L64.1971 8.71567C64.1971 5.9332 62.8271 4.46252 60.2336 4.46252" fill="#45454B"/>
<path d="M50.2005 4.71256H48.6987L48.7089 13.2262H48.7079V15.7213H50.311C50.3312 15.7213 50.3474 15.7235 50.3675 15.7235L51.1142 15.7213H51.8575V15.717H51.8626L51.8691 6.38422C51.8691 5.25821 51.3256 4.71257 50.2016 4.71257" fill="#45454B"/>
<path d="M30.4908 13.2245C28.9024 13.2245 27.7963 11.9748 27.7963 10.1889C27.7963 8.40356 28.9024 7.15469 30.4908 7.15469C32.0852 7.15469 33.2044 8.40356 33.2044 10.1889C33.2044 12.003 32.1119 13.2245 30.4908 13.2245ZM30.4908 4.48682C27.1267 4.48682 24.6871 6.88555 24.6871 10.1889C24.6871 13.4923 27.1267 15.8906 30.4908 15.8906C33.8608 15.8906 36.314 13.4923 36.314 10.1889C36.314 6.88555 33.8608 4.48682 30.4908 4.48682" fill="#45454B"/>
<path d="M98.4098 13.2245C96.822 13.2245 95.7151 11.9748 95.7151 10.1889C95.7151 8.40356 96.822 7.15469 98.4098 7.15469C100.004 7.15469 101.124 8.40356 101.124 10.1889C101.124 12.003 100.031 13.2245 98.4098 13.2245ZM98.4098 4.48682C95.0464 4.48682 92.6068 6.88555 92.6068 10.1889C92.6068 13.4923 95.0464 15.8906 98.4098 15.8906C101.78 15.8906 104.233 13.4923 104.233 10.1889C104.233 6.88555 101.78 4.48682 98.4098 4.48682" fill="#45454B"/>
<path d="M70.8782 12.7401C69.1459 12.7401 68.5293 11.2429 68.5293 9.83995C68.5293 9.22182 68.6871 7.20724 70.7117 7.20724C71.7179 7.20724 73.0588 7.49286 73.0588 9.9437C73.0588 12.2552 71.8721 12.7401 70.8782 12.7401V12.7401ZM74.7039 4.68304C74.1026 4.68304 73.6399 4.92048 73.408 5.35414L73.3205 5.52255L73.1736 5.39624C72.6621 4.95781 71.7451 4.43779 70.256 4.43779C67.2931 4.43779 65.2983 6.64206 65.2983 9.92243C65.2983 13.1989 67.3623 15.4887 70.3156 15.4887C71.3243 15.4887 72.1215 15.2556 72.7534 14.7816L72.9979 14.5997V14.9057C72.9979 16.3764 72.0378 17.1877 70.2972 17.1877C69.4514 17.1877 68.6814 16.9837 68.1666 16.7987C67.4943 16.5978 67.1003 16.764 66.8277 17.4321L66.5762 18.0485L66.2203 18.9488L66.4408 19.0651C67.5548 19.6507 69.0048 20.0001 70.3156 20.0001C73.0141 20.0001 76.1649 18.6319 76.1649 14.7816L76.1765 4.68304H74.7044" fill="#45454B"/>
<path d="M6.24431 13.0981L3.66498 13.0955V10.0409C3.66498 9.38802 3.92049 9.04856 4.4853 8.97044H6.24431C7.49981 8.97044 8.31102 9.75483 8.31192 11.0236C8.31102 12.3259 7.51998 13.0973 6.24431 13.0981V13.0981ZM3.66498 4.85785V4.05393C3.66498 3.35029 3.96556 3.01561 4.62516 2.97263H5.94497C7.0769 2.97263 7.75487 3.64372 7.75487 4.76626C7.75487 5.62228 7.29079 6.62111 5.98661 6.62111H3.66498V4.85785V4.85785ZM9.53851 7.90642L9.07218 7.64684L9.47924 7.30218C9.95259 6.89892 10.7462 5.99256 10.7462 4.42639C10.7462 2.03023 8.86979 0.483589 5.96559 0.483589H2.65133V0.482722H2.27398C1.41296 0.513985 0.72405 1.20764 0.714417 2.06583V15.667H2.23541C2.23926 15.6678 2.24055 15.667 2.24184 15.6678L6.03106 15.667C9.25947 15.667 11.3432 13.9263 11.3432 11.2302C11.3432 9.77863 10.6697 8.53758 9.5378 7.90642" fill="#45454B"/>
<path d="M118.387 4.49803C117.072 4.49803 115.802 5.10791 114.986 6.13061L114.756 6.41884L114.576 6.09632C113.989 5.03629 112.979 4.49803 111.574 4.49803C110.102 4.49803 109.114 5.31193 108.655 5.79593L108.355 6.11802L108.239 5.69436C108.072 5.08447 107.524 4.74849 106.693 4.74849H105.361L105.348 15.7169H108.374V10.8752C108.374 10.4511 108.427 10.0313 108.535 9.59243C108.824 8.42258 109.618 7.16417 110.952 7.29005C111.775 7.36819 112.177 7.99804 112.177 9.21478V15.7169H115.224V10.8752C115.224 10.3451 115.274 9.94838 115.395 9.55032C115.64 8.43343 116.469 7.28832 117.756 7.28832C118.688 7.28832 119.033 7.81095 119.033 9.21478V14.1134C119.033 15.2216 119.532 15.7169 120.649 15.7169H122.074L122.076 8.71472C122.076 5.91748 120.833 4.49803 118.386 4.49803" fill="#45454B"/>
<path d="M90.8547 11.9088C90.8458 11.9196 89.5436 13.2796 87.8292 13.2796C86.2674 13.2796 84.6893 12.3303 84.6893 10.2111C84.6893 8.38141 85.9128 7.10259 87.664 7.10259C88.2328 7.10259 88.8796 7.30444 88.9809 7.64389L88.9958 7.7012C89.2289 8.47083 89.935 8.51207 90.0739 8.51207L91.7317 8.51385V7.07834C91.7317 5.18487 89.3003 4.49815 87.664 4.49815C84.1652 4.49815 81.6265 6.91121 81.6265 10.2341C81.6265 13.5557 84.1376 15.9653 87.6001 15.9653C90.6041 15.9653 92.2377 14.0094 92.253 13.9898L92.3403 13.8839L91.0274 11.7265L90.8547 11.9088" fill="#45454B"/>
</svg>
