<svg width="16" height="16" viewBox="0 0 16 16" fill="none" xmlns="http://www.w3.org/2000/svg">
<path d="M0 8C0 6.36111 0.5 4.90278 1.5 3.625C2.5 2.34722 3.77778 1.51389 5.33333 1.125V2.95833C4.27778 3.34722 3.42361 4 2.77083 4.91667C2.11806 5.83333 1.79167 6.86111 1.79167 8C1.79167 9.47222 2.30556 10.7222 3.33333 11.75L5.33333 9.79167V15.125H0L2.08333 13C0.694445 11.6111 0 9.94444 0 8ZM7.125 12.4583V10.6667H8.875V12.4583H7.125ZM16 0.875L13.9167 3C15.3056 4.38889 16 6.05556 16 8C16 9.63889 15.5 11.0972 14.5 12.375C13.5 13.6528 12.2222 14.4861 10.6667 14.875V13.0417C11.7222 12.6528 12.5764 12 13.2292 11.0833C13.8819 10.1667 14.2083 9.13889 14.2083 8C14.2083 6.52778 13.6944 5.27778 12.6667 4.25L10.6667 6.20833V0.875H16ZM7.125 8.875V3.54167H8.875V8.875H7.125Z" fill="white"/>
</svg>
