<svg width="16" height="16" viewBox="0 0 16 16" fill="none" xmlns="http://www.w3.org/2000/svg">
<path d="M2.83532 6.66667C2.72342 7.10227 2.66697 7.55026 2.66732 8C2.66732 8.46 2.72598 8.90667 2.83532 9.33334H4.73398C4.6441 8.44672 4.6441 7.55329 4.73398 6.66667H2.83532ZM3.38065 5.33334H4.94465C5.12198 4.522 5.37798 3.79534 5.69198 3.19067C4.7241 3.65695 3.91879 4.40349 3.38065 5.33334ZM13.166 6.66667H11.2673C11.3572 7.55329 11.3572 8.44672 11.2673 9.33334H13.166C13.3904 8.45862 13.3904 7.54139 13.166 6.66667ZM12.6207 5.33334C12.0825 4.40349 11.2772 3.65695 10.3093 3.19067C10.624 3.79534 10.8793 4.522 11.0567 5.33334H12.6207ZM6.07532 6.66667C6.02537 7.10936 6.00044 7.55451 6.00065 8C6.00065 8.45667 6.02598 8.90334 6.07532 9.33334H9.92598C10.0264 8.44728 10.0264 7.55272 9.92598 6.66667H6.07532ZM6.31398 5.33334H9.68732C9.56599 4.8322 9.39098 4.34561 9.16532 3.882C8.74665 3.04534 8.29865 2.66667 8.00065 2.66667C7.70198 2.66667 7.25465 3.04534 6.83598 3.882C6.62598 4.30334 6.44932 4.79334 6.31398 5.33334ZM3.38065 10.6667C3.91879 11.5965 4.7241 12.3431 5.69198 12.8093C5.37732 12.2047 5.12198 11.478 4.94465 10.6667H3.38065ZM12.6207 10.6667H11.0567C10.8793 11.478 10.6233 12.2047 10.3093 12.8093C11.2772 12.3431 12.0825 11.5965 12.6207 10.6667ZM6.31398 10.6667C6.44932 11.2067 6.62598 11.6967 6.83598 12.118C7.25465 12.9547 7.70265 13.3333 8.00065 13.3333C8.29932 13.3333 8.74665 12.9547 9.16532 12.118C9.37532 11.6967 9.55198 11.2067 9.68732 10.6667H6.31398ZM8.00065 14.6667C4.31865 14.6667 1.33398 11.682 1.33398 8C1.33398 4.318 4.31865 1.33334 8.00065 1.33334C11.6827 1.33334 14.6673 4.318 14.6673 8C14.6673 11.682 11.6827 14.6667 8.00065 14.6667Z" fill="white"/>
</svg>
