<svg width="18" height="18" viewBox="0 0 18 18" fill="none" xmlns="http://www.w3.org/2000/svg">
<path d="M4.61738 0.5C3.55988 0.5 2.63738 1.247 2.41463 2.28125L0.796878 9.78125C0.501378 11.1673 1.58588 12.5 3.00038 12.5H7.31288L7.17188 13.0625C7.01963 13.1795 6.92288 13.2297 6.70388 13.5312C6.35138 14.0112 6.00038 14.756 6.00038 15.758C6.00038 16.8275 6.96788 17.75 8.17988 17.75H8.48438L8.71913 17.5392L13.8049 12.5H17.2504V0.5H4.61738ZM4.61738 2H12.7504V11.4455L7.94588 16.1795C7.62938 16.118 7.50038 15.989 7.50038 15.758C7.50038 15.0807 7.70513 14.6623 7.89863 14.3983C8.09213 14.135 8.22713 14.0705 8.22713 14.0705L8.48513 13.9295L8.57813 13.625L9.02363 11.9375L9.25838 11H3.00038C2.50538 11 2.17163 10.5695 2.27363 10.0858L3.86738 2.58575C3.94388 2.234 4.26038 2 4.61738 2V2ZM14.2504 2H15.7504V11H14.2504V2Z" fill="#FF7751"/>
</svg>
