<svg width="18" height="16" viewBox="0 0 18 16" fill="none" xmlns="http://www.w3.org/2000/svg">
<path d="M4.9375 0.125C2.35187 0.125 0.25 2.25125 0.25 4.8125C0.25 5.70625 0.655 6.48 1.03125 7.03937C1.2529 7.37065 1.50822 7.67812 1.79312 7.95687L8.55 14.7344L8.99937 15.1838L9.44875 14.7344L16.2063 7.95687C16.2063 7.95687 17.75 6.59688 17.75 4.8125C17.75 2.25125 15.6481 0.125 13.0625 0.125C10.9163 0.125 9.53438 1.41625 9 1.96125C8.46562 1.41625 7.08375 0.125 4.9375 0.125ZM4.9375 1.375C6.805 1.375 8.53125 3.19125 8.53125 3.19125L9 3.71875L9.46875 3.19125C9.46875 3.19125 11.195 1.375 13.0625 1.375C14.9644 1.375 16.5 2.935 16.5 4.8125C16.5 5.77688 15.3281 7.07812 15.3281 7.07812L9 13.4062L2.67188 7.07812C2.67188 7.07812 2.36937 6.7875 2.06625 6.33563C1.76375 5.885 1.5 5.29625 1.5 4.8125C1.5 2.935 3.03562 1.375 4.9375 1.375Z" fill="#1C1E26"/>
</svg>
