<svg width="37" height="17" viewBox="0 0 37 17" fill="none" xmlns="http://www.w3.org/2000/svg">
<path d="M7.964 11.533V13H0.647V0.102999H2.384V11.533H7.964ZM12.7077 3.739C13.3737 3.739 13.9737 3.85 14.5077 4.072C15.0417 4.294 15.4977 4.609 15.8757 5.017C16.2537 5.425 16.5417 5.92 16.7397 6.502C16.9437 7.078 17.0457 7.723 17.0457 8.437C17.0457 9.157 16.9437 9.805 16.7397 10.381C16.5417 10.957 16.2537 11.449 15.8757 11.857C15.4977 12.265 15.0417 12.58 14.5077 12.802C13.9737 13.018 13.3737 13.126 12.7077 13.126C12.0357 13.126 11.4297 13.018 10.8897 12.802C10.3557 12.58 9.8997 12.265 9.5217 11.857C9.1437 11.449 8.8527 10.957 8.6487 10.381C8.4507 9.805 8.3517 9.157 8.3517 8.437C8.3517 7.723 8.4507 7.078 8.6487 6.502C8.8527 5.92 9.1437 5.425 9.5217 5.017C9.8997 4.609 10.3557 4.294 10.8897 4.072C11.4297 3.85 12.0357 3.739 12.7077 3.739ZM12.7077 11.875C13.6077 11.875 14.2797 11.575 14.7237 10.975C15.1677 10.369 15.3897 9.526 15.3897 8.446C15.3897 7.36 15.1677 6.514 14.7237 5.908C14.2797 5.302 13.6077 4.999 12.7077 4.999C12.2517 4.999 11.8527 5.077 11.5107 5.233C11.1747 5.389 10.8927 5.614 10.6647 5.908C10.4427 6.202 10.2747 6.565 10.1607 6.997C10.0527 7.423 9.9987 7.906 9.9987 8.446C9.9987 9.526 10.2207 10.369 10.6647 10.975C11.1147 11.575 11.7957 11.875 12.7077 11.875ZM22.2019 8.545C22.5259 8.545 22.8109 8.5 23.0569 8.41C23.3029 8.32 23.5099 8.194 23.6779 8.032C23.8459 7.87 23.9719 7.678 24.0559 7.456C24.1399 7.228 24.1819 6.979 24.1819 6.709C24.1819 6.151 24.0109 5.707 23.6689 5.377C23.3329 5.047 22.8439 4.882 22.2019 4.882C21.5539 4.882 21.0589 5.047 20.7169 5.377C20.3809 5.707 20.2129 6.151 20.2129 6.709C20.2129 6.979 20.2549 7.228 20.3389 7.456C20.4289 7.678 20.5579 7.87 20.7259 8.032C20.8939 8.194 21.1009 8.32 21.3469 8.41C21.5929 8.5 21.8779 8.545 22.2019 8.545ZM25.0909 13.495C25.0909 13.273 25.0279 13.093 24.9019 12.955C24.7759 12.817 24.6049 12.709 24.3889 12.631C24.1789 12.553 23.9329 12.499 23.6509 12.469C23.3689 12.433 23.0689 12.406 22.7509 12.388C22.4389 12.37 22.1209 12.352 21.7969 12.334C21.4729 12.316 21.1609 12.286 20.8609 12.244C20.5249 12.4 20.2489 12.598 20.0329 12.838C19.8229 13.072 19.7179 13.348 19.7179 13.666C19.7179 13.87 19.7689 14.059 19.8709 14.233C19.9789 14.413 20.1409 14.566 20.3569 14.692C20.5729 14.824 20.8429 14.926 21.1669 14.998C21.4969 15.076 21.8839 15.115 22.3279 15.115C22.7599 15.115 23.1469 15.076 23.4889 14.998C23.8309 14.92 24.1189 14.809 24.3529 14.665C24.5929 14.521 24.7759 14.35 24.9019 14.152C25.0279 13.954 25.0909 13.735 25.0909 13.495ZM26.7199 4.243V4.837C26.7199 5.035 26.5939 5.161 26.3419 5.215L25.3069 5.35C25.5109 5.746 25.6129 6.184 25.6129 6.664C25.6129 7.108 25.5259 7.513 25.3519 7.879C25.1839 8.239 24.9499 8.548 24.6499 8.806C24.3499 9.064 23.9899 9.262 23.5699 9.4C23.1499 9.538 22.6939 9.607 22.2019 9.607C21.7759 9.607 21.3739 9.556 20.9959 9.454C20.8039 9.574 20.6569 9.703 20.5549 9.841C20.4529 9.973 20.4019 10.108 20.4019 10.246C20.4019 10.462 20.4889 10.627 20.6629 10.741C20.8429 10.849 21.0769 10.927 21.3649 10.975C21.6529 11.023 21.9799 11.053 22.3459 11.065C22.7179 11.077 23.0959 11.098 23.4799 11.128C23.8699 11.152 24.2479 11.197 24.6139 11.263C24.9859 11.329 25.3159 11.437 25.6039 11.587C25.8919 11.737 26.1229 11.944 26.2969 12.208C26.4769 12.472 26.5669 12.814 26.5669 13.234C26.5669 13.624 26.4679 14.002 26.2699 14.368C26.0779 14.734 25.7989 15.058 25.4329 15.34C25.0669 15.628 24.6169 15.856 24.0829 16.024C23.5549 16.198 22.9579 16.285 22.2919 16.285C21.6259 16.285 21.0439 16.219 20.5459 16.087C20.0479 15.955 19.6339 15.778 19.3039 15.556C18.9739 15.334 18.7249 15.076 18.5569 14.782C18.3949 14.494 18.3139 14.191 18.3139 13.873C18.3139 13.423 18.4549 13.042 18.7369 12.73C19.0189 12.418 19.4059 12.169 19.8979 11.983C19.6279 11.863 19.4119 11.704 19.2499 11.506C19.0939 11.302 19.0159 11.029 19.0159 10.687C19.0159 10.555 19.0399 10.42 19.0879 10.282C19.1359 10.138 19.2079 9.997 19.3039 9.859C19.4059 9.715 19.5289 9.58 19.6729 9.454C19.8169 9.328 19.9849 9.217 20.1769 9.121C19.7269 8.869 19.3759 8.536 19.1239 8.122C18.8719 7.702 18.7459 7.216 18.7459 6.664C18.7459 6.22 18.8299 5.818 18.9979 5.458C19.1719 5.092 19.4119 4.783 19.7179 4.531C20.0239 4.273 20.3869 4.075 20.8069 3.937C21.2329 3.799 21.6979 3.73 22.2019 3.73C22.5979 3.73 22.9669 3.775 23.3089 3.865C23.6509 3.949 23.9629 4.075 24.2449 4.243H26.7199ZM32.0788 3.739C32.7448 3.739 33.3448 3.85 33.8788 4.072C34.4128 4.294 34.8688 4.609 35.2468 5.017C35.6248 5.425 35.9128 5.92 36.1108 6.502C36.3148 7.078 36.4168 7.723 36.4168 8.437C36.4168 9.157 36.3148 9.805 36.1108 10.381C35.9128 10.957 35.6248 11.449 35.2468 11.857C34.8688 12.265 34.4128 12.58 33.8788 12.802C33.3448 13.018 32.7448 13.126 32.0788 13.126C31.4068 13.126 30.8008 13.018 30.2608 12.802C29.7268 12.58 29.2708 12.265 28.8928 11.857C28.5148 11.449 28.2238 10.957 28.0198 10.381C27.8218 9.805 27.7228 9.157 27.7228 8.437C27.7228 7.723 27.8218 7.078 28.0198 6.502C28.2238 5.92 28.5148 5.425 28.8928 5.017C29.2708 4.609 29.7268 4.294 30.2608 4.072C30.8008 3.85 31.4068 3.739 32.0788 3.739ZM32.0788 11.875C32.9788 11.875 33.6508 11.575 34.0948 10.975C34.5388 10.369 34.7608 9.526 34.7608 8.446C34.7608 7.36 34.5388 6.514 34.0948 5.908C33.6508 5.302 32.9788 4.999 32.0788 4.999C31.6228 4.999 31.2238 5.077 30.8818 5.233C30.5458 5.389 30.2638 5.614 30.0358 5.908C29.8138 6.202 29.6458 6.565 29.5318 6.997C29.4238 7.423 29.3698 7.906 29.3698 8.446C29.3698 9.526 29.5918 10.369 30.0358 10.975C30.4858 11.575 31.1668 11.875 32.0788 11.875Z" fill="black"/>
</svg>
