<svg width="20" height="20" viewBox="0 0 20 20" fill="none" xmlns="http://www.w3.org/2000/svg">
<path d="M9.99981 0.25C9.53106 0.25 9.06531 0.4075 8.66406 0.6955L7.42206 1.5625L5.99106 1.75H5.96781L5.94456 1.77325C5.47524 1.87924 5.04556 2.11607 4.70535 2.45628C4.36513 2.7965 4.1283 3.22618 4.02231 3.6955L3.99981 3.71875V3.742L3.81231 5.1955L2.94531 6.3205L2.92131 6.34375V6.367C2.39706 7.20475 2.37381 8.28625 2.94531 9.08575L3.83556 10.3278L4.07031 11.6177L1.65606 15.2965L0.882812 16.4455H4.46856L5.33556 18.4608L5.87481 19.75L6.64806 18.5778L9.01506 15.0153C9.65106 15.2763 10.3688 15.3003 10.9846 15.0153L13.3516 18.5778L14.1248 19.75L14.6641 18.4608L15.5311 16.4455H19.1168L18.3436 15.2965L15.9998 11.7347L16.1873 10.3285L17.0543 9.0865L17.0783 9.06325V9.04C17.6026 8.20225 17.6258 7.144 17.0543 6.3445L16.1873 5.10175L15.9061 3.6955H15.9293C15.9263 3.6775 15.9091 3.6655 15.9061 3.64825C15.7711 2.66725 14.9948 1.87075 14.0078 1.75H13.9838L12.5776 1.5625L11.3356 0.6955C10.9477 0.411339 10.4806 0.255571 9.99981 0.25V0.25ZM9.99981 1.77325C10.1723 1.77325 10.3426 1.82575 10.4686 1.91425L11.8043 2.875L11.9686 2.992L12.1561 3.016L13.7971 3.25H13.8196C14.1571 3.2875 14.3911 3.52225 14.4293 3.85975V3.90625L14.7346 5.5705L14.7571 5.73475L14.8748 5.875L15.8356 7.21075C16.0148 7.45975 16.0381 7.882 15.8123 8.242L14.7578 9.71875L14.7338 9.90625L14.4998 11.5472V11.5698C14.4873 11.687 14.4472 11.7995 14.3828 11.8983L14.3356 11.9222V11.9448C14.2241 12.0786 14.0642 12.163 13.8908 12.1795H13.8436L12.1328 12.4847L11.9453 12.5073L11.8043 12.625L10.4686 13.5858C10.2196 13.765 9.77406 13.7882 9.41406 13.5625L8.19531 12.625L8.05431 12.508L7.84356 12.484L6.20256 12.25H6.18006C6.07401 12.2406 5.97177 12.2059 5.88197 12.1487C5.79216 12.0916 5.71742 12.0136 5.66406 11.9215C5.61422 11.835 5.58234 11.7393 5.57031 11.6403V11.5938L5.26581 9.883L5.24181 9.6955L5.12481 9.5545L4.16406 8.21875C3.98481 7.96975 3.96156 7.52425 4.18731 7.16425L5.12481 5.9455L5.24181 5.8045L5.26506 5.59375L5.47656 4.02325C5.47956 4.012 5.49681 4.012 5.49981 4C5.54657 3.81946 5.64077 3.65471 5.77264 3.52283C5.90452 3.39096 6.06927 3.29676 6.24981 3.25C6.26181 3.247 6.26181 3.22975 6.27306 3.22675L7.84356 3.01525L8.03106 2.99275L8.19531 2.875L9.53106 1.91425C9.65706 1.8265 9.82731 1.77325 9.99981 1.77325V1.77325ZM15.1793 13.1875L16.3283 14.9455H14.5223L14.3348 15.4142L13.8196 16.609L12.2258 14.1715L12.5768 13.9142L14.0543 13.6562V13.6795C14.0716 13.6765 14.0828 13.6593 14.1008 13.6562C14.4955 13.5993 14.8678 13.4374 15.1786 13.1875H15.1793ZM4.82031 13.2108C5.14598 13.5068 5.55511 13.6951 5.99181 13.75H6.01506L7.44531 13.9375L7.77306 14.1955L6.17931 16.609L5.66406 15.4142L5.47656 14.9455H3.67206L4.82031 13.2108Z" fill="#8D8D96"/>
</svg>
