<svg width="12" height="18" viewBox="0 0 12 18" fill="none" xmlns="http://www.w3.org/2000/svg">
<path d="M2.25 0C1.01625 0 0 1.01625 0 2.25V15.75C0 16.9837 1.01625 18 2.25 18H9.75C10.9837 18 12 16.9837 12 15.75V2.25C12 1.01625 10.9837 0 9.75 0H2.25ZM2.25 1.5H9.75C10.1663 1.5 10.5 1.83375 10.5 2.25V15.75C10.5 16.1663 10.1663 16.5 9.75 16.5H2.25C1.83375 16.5 1.5 16.1663 1.5 15.75V2.25C1.5 1.83375 1.83375 1.5 2.25 1.5ZM6 14.25C5.5875 14.25 5.25 14.5875 5.25 15C5.25 15.4125 5.5875 15.75 6 15.75C6.4125 15.75 6.75 15.4125 6.75 15C6.75 14.5875 6.4125 14.25 6 14.25Z" fill="#8D8D96"/>
</svg>
