<svg width="22" height="12" viewBox="0 0 22 12" fill="none" xmlns="http://www.w3.org/2000/svg">
<path d="M5.75 0.75C2.85875 0.75 0.5 3.10875 0.5 6C0.5 8.895 2.855 11.25 5.75 11.25C7.9475 11.25 9.28925 10.0425 10.3205 8.5545C10.013 8.0595 9.755 7.5705 9.5 7.10175C8.57975 8.622 7.5485 9.75 5.75 9.75C3.6815 9.75 2 8.0685 2 6C2 3.92025 3.67025 2.25 5.75 2.25C6.96275 2.25 7.73375 2.6835 8.4455 3.42225C9.15725 4.16025 9.758 5.22675 10.367 6.35175C10.9768 7.47675 11.5947 8.66025 12.5 9.609C13.4053 10.5585 14.6533 11.25 16.25 11.25C19.1413 11.25 21.5 8.89125 21.5 6C21.5 3.105 19.145 0.75 16.25 0.75C14.0645 0.75 12.7138 1.91925 11.6795 3.375C11.987 3.861 12.2683 4.33875 12.5233 4.8045C13.4375 3.32775 14.4575 2.25 16.25 2.25C18.3185 2.25 20 3.9315 20 6C20 8.07975 18.3298 9.75 16.25 9.75C15.0575 9.75 14.3075 9.3165 13.6017 8.57775C12.8952 7.83975 12.2923 6.77325 11.6795 5.64825C11.0675 4.52325 10.4375 3.33975 9.52325 2.39025C8.609 1.4415 7.361 0.75 5.75 0.75Z" fill="#8D8D96"/>
</svg>
