<svg width="18" height="18" viewBox="0 0 18 18" fill="none" xmlns="http://www.w3.org/2000/svg">
<path d="M9.516 0.25L9.28125 0.46075L4.1955 5.5H0.75V17.5H13.383C14.4405 17.5 15.363 16.753 15.5858 15.7188L17.2035 8.21875C17.4982 6.83275 16.4152 5.5 15 5.5H10.6875L10.8285 4.9375C10.9807 4.8205 11.0775 4.77025 11.2972 4.46875C11.6482 3.98875 12 3.244 12 2.242C12 1.1725 11.0325 0.25 9.8205 0.25H9.516ZM10.0545 1.8205C10.371 1.882 10.5 2.011 10.5 2.242C10.5 2.91925 10.2952 3.33775 10.1017 3.60175C9.90825 3.865 9.77325 3.9295 9.77325 3.9295L9.516 4.0705L9.42225 4.375L8.97675 6.0625L8.742 7H15C15.495 7 15.8287 7.4305 15.7267 7.91425L14.133 15.4142C14.0565 15.7652 13.74 16 13.383 16H5.25V6.5545L10.0545 1.8205ZM2.25 7H3.75V16H2.25V7Z" fill="#4ECE5B"/>
</svg>
