<svg width="16" height="16" viewBox="0 0 16 16" fill="none" xmlns="http://www.w3.org/2000/svg">
<path d="M4.75 2.5C2.6815 2.5 1 4.201 1 6.25C1 6.965 1.324 7.584 1.625 8.0315C1.80232 8.29652 2.00657 8.5425 2.2345 8.7655L7.64 14.1875L7.9995 14.547L8.359 14.1875L13.765 8.7655C13.765 8.7655 15 7.6775 15 6.25C15 4.201 13.3185 2.5 11.25 2.5C9.533 2.5 8.4275 3.533 8 3.969C7.5725 3.533 6.467 2.5 4.75 2.5ZM4.75 3.5C6.244 3.5 7.625 4.953 7.625 4.953L8 5.375L8.375 4.953C8.375 4.953 9.756 3.5 11.25 3.5C12.7715 3.5 14 4.748 14 6.25C14 7.0215 13.0625 8.0625 13.0625 8.0625L8 13.125L2.9375 8.0625C2.9375 8.0625 2.6955 7.83 2.453 7.4685C2.211 7.108 2 6.637 2 6.25C2 4.748 3.2285 3.5 4.75 3.5Z" fill="white"/>
</svg>
