<svg width="14" height="10" viewBox="0 0 14 10" fill="none" xmlns="http://www.w3.org/2000/svg">
<path d="M1.5 0V6.7815L0.3595 7.9385C0.131113 8.16604 0.00189612 8.47462 0 8.797C0.0015771 9.11557 0.128828 9.42064 0.354093 9.64591C0.579358 9.87117 0.884431 9.99842 1.203 10H12.797C13.1156 9.99842 13.4206 9.87117 13.6459 9.64591C13.8712 9.42064 13.9984 9.11557 14 8.797C13.998 8.47433 13.8689 8.16547 13.6405 7.9375L12.5 6.781V0H1.5ZM2.5 1H11.5V6.5H2.5V1ZM7 1.5L6.25 6H7L7.75 1.5H7ZM5.043 2.5L4.1835 3.534L4 3.75L4.1835 3.966L5.043 5L5.586 4.5685L4.905 3.75L5.585 2.9315L5.0435 2.5H5.043ZM8.957 2.5L8.414 2.9315L9.095 3.75L8.415 4.5685L8.9575 5L9.817 3.966L10 3.75L9.8165 3.534L8.957 2.5ZM2.2185 7.5H11.781L12.9375 8.6405C12.9772 8.68299 12.9995 8.73884 13 8.797C13.0014 8.82404 12.9972 8.85108 12.9875 8.87636C12.9778 8.90164 12.9629 8.9246 12.9437 8.94375C12.9246 8.96289 12.9016 8.97779 12.8764 8.98749C12.8511 8.99718 12.824 9.00144 12.797 9H1.203C1.17596 9.00144 1.14892 8.99718 1.12364 8.98749C1.09836 8.97779 1.0754 8.96289 1.05625 8.94375C1.03711 8.9246 1.02221 8.90164 1.01251 8.87636C1.00282 8.85108 0.998559 8.82404 1 8.797C1 8.742 1.0235 8.68 1.0625 8.6405L2.219 7.5H2.2185Z" fill="#5182FF"/>
</svg>
