<svg width="14" height="10" viewBox="0 0 14 10" fill="none" xmlns="http://www.w3.org/2000/svg">
<path d="M4.75 0L4.5935 0.203L4 1H0.5V10H13.5V1H10L9.406 0.203L9.25 0H4.75ZM5.25 1H8.75L9.344 1.797L9.5 2H12.5V9H1.5V2H4.5L4.6565 1.797L5.25 1ZM3 2.5C2.725 2.5 2.5 2.725 2.5 3C2.5 3.275 2.725 3.5 3 3.5C3.275 3.5 3.5 3.275 3.5 3C3.5 2.725 3.275 2.5 3 2.5ZM7 2.5C5.35 2.5 4 3.85 4 5.5C4 7.15 5.35 8.5 7 8.5C8.65 8.5 10 7.15 10 5.5C10 3.85 8.65 2.5 7 2.5ZM7 3.5C8.1115 3.5 9 4.3885 9 5.5C9 6.6115 8.1115 7.5 7 7.5C5.8885 7.5 5 6.6115 5 5.5C5 4.3885 5.8885 3.5 7 3.5Z" fill="#5182FF"/>
</svg>
