<svg width="10" height="12" viewBox="0 0 10 12" fill="none" xmlns="http://www.w3.org/2000/svg">
<path d="M5 0.5C3.0725 0.5 1.5 2.0725 1.5 4C1.5 5.205 2.115 6.275 3.047 6.9065C1.2635 7.6715 0 9.4415 0 11.5H1C1 9.285 2.785 7.5 5 7.5C7.215 7.5 9 9.285 9 11.5H10C10 9.4415 8.7365 7.672 6.953 6.906C7.42867 6.58489 7.81841 6.1521 8.0881 5.64549C8.35778 5.13889 8.49921 4.57391 8.5 4C8.5 2.0725 6.9275 0.5 5 0.5ZM5 1.5C6.3865 1.5 7.5 2.6135 7.5 4C7.5 5.3865 6.3865 6.5 5 6.5C3.6135 6.5 2.5 5.3865 2.5 4C2.5 2.6135 3.6135 1.5 5 1.5Z" fill="#5182FF"/>
</svg>
