<svg width="14" height="10" viewBox="0 0 14 10" fill="none" xmlns="http://www.w3.org/2000/svg">
<path d="M1.5 0V6.7815L0.3595 7.9375C0.131191 8.1655 0.0020121 8.47435 0 8.797C0.00144675 9.11561 0.128656 9.42076 0.353949 9.64605C0.579242 9.87134 0.88439 9.99855 1.203 10H12.797C13.1156 9.99855 13.4208 9.87134 13.6461 9.64605C13.8713 9.42076 13.9986 9.11561 14 8.797C14 8.477 13.867 8.164 13.6405 7.9375L12.5 6.781V0H1.5ZM2.5 1H11.5V6.5H2.5V1ZM2.2185 7.5H11.781L12.9375 8.6405C12.9772 8.68302 12.9995 8.73885 13 8.797C13.0015 8.82406 12.9973 8.85113 12.9876 8.87645C12.978 8.90177 12.9631 8.92476 12.9439 8.94392C12.9248 8.96308 12.9018 8.97798 12.8764 8.98765C12.8511 8.99731 12.8241 9.00152 12.797 9H1.203C1.17594 9.00152 1.14887 8.99731 1.12355 8.98765C1.09823 8.97798 1.07524 8.96308 1.05608 8.94392C1.03692 8.92476 1.02202 8.90177 1.01235 8.87645C1.00269 8.85113 0.998479 8.82406 1 8.797C1 8.742 1.0235 8.6795 1.0625 8.6405L2.2185 7.5Z" fill="#5182FF"/>
</svg>
