<svg width="13" height="13" viewBox="0 0 13 13" fill="none" xmlns="http://www.w3.org/2000/svg">
<path d="M12.5 0.890625L11.906 1.01563L3.906 2.51563L3.5 2.57813V9.28162C3.19796 9.09978 2.85255 9.00255 2.5 9.00012C1.4 9.00012 0.5 9.90012 0.5 11.0001C0.5 12.1001 1.4 13.0001 2.5 13.0001C3.6 13.0001 4.5 12.1001 4.5 11.0001V5.40613L11.5 4.09412V7.78113C11.1979 7.59946 10.8525 7.5024 10.5 7.50012C9.4 7.50012 8.5 8.40013 8.5 9.50012C8.5 10.6001 9.4 11.5001 10.5 11.5001C11.6 11.5001 12.5 10.6001 12.5 9.50012V0.890625ZM11.5 2.09362V3.09363L4.5 4.40662V3.40662L11.5 2.09362ZM10.5 8.50012C11.0585 8.50012 11.5 8.94162 11.5 9.50012C11.5 10.0586 11.0585 10.5001 10.5 10.5001C9.9415 10.5001 9.5 10.0586 9.5 9.50012C9.5 8.94162 9.9415 8.50012 10.5 8.50012ZM2.5 10.0001C3.0585 10.0001 3.5 10.4416 3.5 11.0001C3.5 11.5586 3.0585 12.0001 2.5 12.0001C1.9415 12.0001 1.5 11.5586 1.5 11.0001C1.5 10.4416 1.9415 10.0001 2.5 10.0001Z" fill="#5182FF"/>
</svg>
