<svg width="14" height="14" viewBox="0 0 14 14" fill="none" xmlns="http://www.w3.org/2000/svg">
<path d="M3.4065 0.5L3.0625 0.8595L0.8595 3.0625L0.5 3.4065L4.094 7L1.594 9.5L1.5625 9.6565L1.0155 12.4065L0.8595 13.1405L1.594 12.9845L4.344 12.4375L4.5 12.406L7 9.906L10.578 13.4845L10.922 13.125L13.125 10.922L13.4845 10.578L9.906 7L12.375 4.531C12.5663 4.34045 12.718 4.11401 12.8216 3.86466C12.9251 3.61532 12.9785 3.34799 12.9785 3.078C12.9785 2.80801 12.9251 2.54068 12.8216 2.29134C12.718 2.04199 12.5663 1.81555 12.375 1.625C12.1848 1.43281 11.9586 1.28005 11.7092 1.17546C11.4599 1.07087 11.1924 1.01651 10.922 1.0155C10.6515 1.01645 10.3839 1.07077 10.1345 1.17536C9.88507 1.27995 9.65875 1.43275 9.4685 1.625L7 4.094L3.4065 0.5ZM3.4065 1.922L4.375 2.906L3.6405 3.641L4.3595 4.3595L5.094 3.625L6.281 4.8125L4.797 6.297L1.9065 3.4065L3.4065 1.922ZM10.9215 1.9845C11.1815 1.9845 11.4455 2.1015 11.6715 2.328C12.123 2.7795 12.123 3.3615 11.6715 3.8125L11.344 4.1405L9.859 2.656L10.1875 2.328C10.414 2.1015 10.6625 1.9845 10.922 1.9845H10.9215ZM9.1565 3.3595L10.6405 4.844L4.594 10.89C4.26304 10.2546 3.74458 9.73653 3.109 9.406L9.1565 3.3595ZM9.203 7.703L10.3905 8.8905L9.6405 9.6405L10.3595 10.3595L11.1095 9.6095L12.0625 10.5625L10.5625 12.0625L7.703 9.203L9.203 7.703ZM2.469 10.203C3.06849 10.4549 3.54529 10.9319 3.797 11.5315L2.1405 11.8595L2.469 10.203Z" fill="#5182FF"/>
</svg>
