<svg width="12" height="12" viewBox="0 0 12 12" fill="none" xmlns="http://www.w3.org/2000/svg">
<path d="M9.4845 0.000106076C9.40542 0.00205414 9.32679 0.0126166 9.25 0.0316062L1.125 2.17161C0.803844 2.25663 0.519632 2.44507 0.316288 2.70779C0.112944 2.97051 0.00178858 3.29289 0 3.62511V10.5001C0 11.3226 0.6775 12.0001 1.5 12.0001H10.5C11.3225 12.0001 12 11.3226 12 10.5001V4.00011C12 3.17761 11.3225 2.50011 10.5 2.50011H3.8125L9.5 1.00011V2.00011H10.5V1.00011C10.5 0.437606 10.0215 -0.00789393 9.4845 0.000106076ZM1.5 3.50011H10.5C10.783 3.50011 11 3.71711 11 4.00011V10.5001C11 10.7831 10.783 11.0001 10.5 11.0001H1.5C1.217 11.0001 1 10.7831 1 10.5001V4.00011C1 3.71711 1.217 3.50011 1.5 3.50011ZM9.25 6.50011C9.05109 6.50011 8.86032 6.57912 8.71967 6.71978C8.57902 6.86043 8.5 7.05119 8.5 7.25011C8.5 7.44902 8.57902 7.63978 8.71967 7.78044C8.86032 7.92109 9.05109 8.00011 9.25 8.00011C9.44891 8.00011 9.63968 7.92109 9.78033 7.78044C9.92098 7.63978 10 7.44902 10 7.25011C10 7.05119 9.92098 6.86043 9.78033 6.71978C9.63968 6.57912 9.44891 6.50011 9.25 6.50011Z" fill="#5182FF"/>
</svg>
