<svg width="12" height="12" viewBox="0 0 12 12" fill="none" xmlns="http://www.w3.org/2000/svg">
<path d="M7.75 0.5C7.28644 0.501843 6.84239 0.68681 6.5146 1.0146C6.18681 1.34239 6.00184 1.78644 6 2.25C6 3.211 6.789 4 7.75 4C8.711 4 9.5 3.211 9.5 2.25C9.5 1.289 8.711 0.5 7.75 0.5ZM7.75 1.5C8.17 1.5 8.5 1.83 8.5 2.25C8.5 2.67 8.17 3 7.75 3C7.33 3 7 2.67 7 2.25C7 1.83 7.33 1.5 7.75 1.5ZM5.547 3.2655C5.293 3.291 5.047 3.416 4.875 3.625L3.703 5.047C3.299 5.539 3.4745 6.3165 4.047 6.594L5.7655 7.4375L5.3125 9.9375L6.297 10.1095L6.828 7.2345L6.8905 6.8595L6.547 6.6875L4.4685 5.6875L5.6565 4.25L7.6875 5.8905L7.828 6H10.5V5H8.172L6.281 3.4845C6.07415 3.31877 5.81084 3.24021 5.547 3.2655ZM2.25 7C1.0155 7 0 8.0155 0 9.25C0 10.4845 1.0155 11.5 2.25 11.5C3.4845 11.5 4.5 10.4845 4.5 9.25C4.5 8.0155 3.4845 7 2.25 7ZM9.75 7C8.5155 7 7.5 8.0155 7.5 9.25C7.5 10.4845 8.5155 11.5 9.75 11.5C10.9845 11.5 12 10.4845 12 9.25C12 8.0155 10.9845 7 9.75 7ZM2.25 8C2.9395 8 3.5 8.5605 3.5 9.25C3.5 9.9395 2.9395 10.5 2.25 10.5C1.91856 10.4997 1.60077 10.368 1.36641 10.1336C1.13205 9.89923 1.00026 9.58144 1 9.25C1 8.5605 1.5605 8 2.25 8ZM9.75 8C10.4395 8 11 8.5605 11 9.25C11 9.9395 10.4395 10.5 9.75 10.5C9.41856 10.4997 9.10077 10.368 8.86641 10.1336C8.63205 9.89923 8.50027 9.58144 8.5 9.25C8.5 8.5605 9.0605 8 9.75 8Z" fill="#5182FF"/>
</svg>
