<svg width="10" height="14" viewBox="0 0 10 14" fill="none" xmlns="http://www.w3.org/2000/svg">
<path d="M0 0.5V13.5H10V3.797L9.8595 3.6405L6.8595 0.6405L6.703 0.5H0ZM1 1.5H6V4.5H9V12.5H1V1.5ZM7 2.219L8.2815 3.5H7V2.219ZM5 5.5L4 11.5H5L6 5.5H5ZM3.1095 6.6875L1.8595 8.1875L1.594 8.5L1.859 8.8125L3.109 10.3125L3.8905 9.6875L2.906 8.5L3.891 7.3125L3.1095 6.6875ZM6.8905 6.6875L6.1095 7.3125L7.0935 8.5L6.1095 9.6875L6.8905 10.3125L8.1405 8.8125L8.4065 8.5L8.1405 8.1875L6.8905 6.6875Z" fill="#5182FF"/>
</svg>
