<svg width="15" height="15" viewBox="0 0 15 15" fill="none" xmlns="http://www.w3.org/2000/svg">
<path d="M6 0.5C5.74 0.5 5.47 0.59 5.28 0.78C5.09 0.97 5 1.24 5 1.5V2H0.5V12H6.1C6.035 11.68 6 11.345 6 11H1.5V7.72C1.795 7.89 2.135 8 2.5 8H7.005C7.285 7.62 7.625 7.28 8.005 7H2.5C1.905 7 1.5 6.595 1.5 6V3H12.5V6C12.5 6.08 12.495 6.155 12.48 6.225C12.84 6.335 13.18 6.485 13.5 6.67V2H9V1.5C9 1.24 8.91 0.97 8.72 0.78C8.53 0.59 8.26 0.5 8 0.5H6ZM6 1.5H8V2H6V1.5ZM3.5 5V6.5H4.5V5H3.5ZM9.5 5V6.23C9.8256 6.12824 10.1606 6.05956 10.5 6.025V5H9.5ZM11 7C8.795 7 7 8.795 7 11C7 13.205 8.795 15 11 15C13.205 15 15 13.205 15 11C15 8.795 13.205 7 11 7ZM11 8C12.66 8 14 9.34 14 11C14 12.66 12.66 14 11 14C9.34 14 8 12.66 8 11C8 9.34 9.34 8 11 8ZM10.5 8.5V11.5H13V10.5H11.5V8.5H10.5Z" fill="#5182FF"/>
</svg>
