<svg id="_x31_" height="512" viewBox="0 0 24 24" width="512" xmlns="http://www.w3.org/2000/svg"><path d="m9.5 24c-.668 0-1.296-.26-1.768-.732l-7-7c-.472-.472-.732-1.1-.732-1.768 0-.642.243-1.252.684-1.718l8.274-8.688c.657-.695 1.584-1.094 2.542-1.094h7c1.378 0 2.5 1.122 2.5 2.5v7c0 .958-.399 1.884-1.095 2.542l-8.686 8.273c-.467.442-1.077.685-1.719.685zm2-20c-.694 0-1.339.278-1.816.782l-8.275 8.688c-.263.279-.409.645-.409 1.03 0 .401.156.777.439 1.06l7 7c.556.556 1.522.569 2.091.029l8.686-8.272s0 0 .001-.001c.505-.477.783-1.122.783-1.816v-7c0-.827-.673-1.5-1.5-1.5z"/><path d="m15.5 11c-1.378 0-2.5-1.122-2.5-2.5s1.122-2.5 2.5-2.5 2.5 1.122 2.5 2.5-1.122 2.5-2.5 2.5zm0-4c-.827 0-1.5.673-1.5 1.5s.673 1.5 1.5 1.5 1.5-.673 1.5-1.5-.673-1.5-1.5-1.5z"/><path d="m15.5 9c-.276 0-.5-.224-.5-.5v-2c0-3.584 2.916-6.5 6.5-6.5 1.378 0 2.5 1.122 2.5 2.5 0 .446-.044.881-.131 1.293-.057.27-.325.444-.592.386-.271-.057-.443-.322-.386-.592.072-.344.109-.71.109-1.087 0-.827-.673-1.5-1.5-1.5-3.033 0-5.5 2.467-5.5 5.5v2c0 .276-.224.5-.5.5z"/></svg>