<svg width="12" height="12" viewBox="0 0 12 12" fill="none" xmlns="http://www.w3.org/2000/svg">
<path d="M6 0C2.6915 0 0 2.6915 0 6C0 9.3085 2.6915 12 6 12C9.3085 12 12 9.3085 12 6C12 2.6915 9.3085 0 6 0ZM6 1C8.7675 1 11 3.2325 11 6C11 8.7675 8.7675 11 6 11C3.2325 11 1 8.7675 1 6C1 3.2325 3.2325 1 6 1ZM6 3C4.9 3 4 3.9 4 5H5C5 4.4415 5.4415 4 6 4C6.5585 4 7 4.4415 7 5C6.99987 5.18686 6.94092 5.36893 6.83153 5.52041C6.72213 5.6719 6.56783 5.78511 6.3905 5.844L6.1875 5.906C5.98765 5.97334 5.81389 6.10154 5.6906 6.27263C5.5673 6.44372 5.50065 6.64911 5.5 6.86V7.5H6.5V6.8595L6.703 6.797C7.07973 6.67037 7.40738 6.42899 7.63998 6.10671C7.87258 5.78444 7.99848 5.39744 8 5C8 3.9 7.1 3 6 3ZM5.5 8V9H6.5V8H5.5Z" fill="#8D8D96"/>
</svg>
