<svg width="20" height="20" viewBox="0 0 20 20" fill="none" xmlns="http://www.w3.org/2000/svg">
<path d="M8.33335 14.9998C9.8125 14.9995 11.249 14.5044 12.4142 13.5932L16.0775 17.2565L17.2559 16.0782L13.5925 12.4148C14.5042 11.2496 14.9997 9.8127 15 8.33317C15 4.65734 12.0092 1.6665 8.33335 1.6665C4.65752 1.6665 1.66669 4.65734 1.66669 8.33317C1.66669 12.009 4.65752 14.9998 8.33335 14.9998ZM8.33335 3.33317C11.0909 3.33317 13.3334 5.57567 13.3334 8.33317C13.3334 11.0907 11.0909 13.3332 8.33335 13.3332C5.57585 13.3332 3.33335 11.0907 3.33335 8.33317C3.33335 5.57567 5.57585 3.33317 8.33335 3.33317Z" fill="#DFDFE2"/>
</svg>
