<svg width="63" height="60" viewBox="0 0 63 60" fill="none" xmlns="http://www.w3.org/2000/svg">
<path d="M0 0H58C60.7614 0 63 2.23858 63 5V55C63 57.7614 60.7614 60 58 60H0V0Z" fill="#5182FF"/>
<path d="M22.4609 27.7503C22.4609 31.8843 25.8269 35.2503 29.9609 35.2503C31.7572 35.2503 33.4034 34.6203 34.6957 33.5628L40.6709 39.5395L41.7509 38.4603L35.7742 32.4843C36.8684 31.1496 37.4647 29.4762 37.4609 27.7503C37.4609 23.6163 34.0949 20.2503 29.9609 20.2503C25.8269 20.2503 22.4609 23.6163 22.4609 27.7503ZM23.9609 27.7503C23.9609 24.4278 26.6384 21.7503 29.9609 21.7503C33.2834 21.7503 35.9609 24.4278 35.9609 27.7503C35.9609 31.0728 33.2834 33.7503 29.9609 33.7503C26.6384 33.7503 23.9609 31.0728 23.9609 27.7503Z" fill="white"/>
</svg>
