<svg width="20" height="20" viewBox="0 0 20 20" fill="none" xmlns="http://www.w3.org/2000/svg">
<path d="M8.33334 14.9998C9.81249 14.9995 11.249 14.5044 12.4142 13.5932L16.0775 17.2565L17.2558 16.0782L13.5925 12.4148C14.5042 11.2496 14.9997 9.8127 15 8.33317C15 4.65734 12.0092 1.6665 8.33334 1.6665C4.65751 1.6665 1.66667 4.65734 1.66667 8.33317C1.66667 12.009 4.65751 14.9998 8.33334 14.9998ZM8.33334 3.33317C11.0908 3.33317 13.3333 5.57567 13.3333 8.33317C13.3333 11.0907 11.0908 13.3332 8.33334 13.3332C5.57584 13.3332 3.33334 11.0907 3.33334 8.33317C3.33334 5.57567 5.57584 3.33317 8.33334 3.33317Z" fill="#5182FF"/>
</svg>
