<svg width="15" height="14" viewBox="0 0 15 14" fill="none" xmlns="http://www.w3.org/2000/svg">
<path d="M7.05282 0.894007C7.23711 0.525576 7.76289 0.525576 7.94718 0.894007L9.60576 4.20986C9.67853 4.35535 9.81753 4.45635 9.97839 4.4806L13.6445 5.03334C14.0518 5.09476 14.2143 5.59481 13.9209 5.88393L11.2798 8.48598C11.1639 8.60016 11.1108 8.76356 11.1375 8.92404L11.7447 12.5815C11.8121 12.9879 11.3868 13.297 11.0211 13.1072L7.7303 11.3995C7.58591 11.3246 7.41409 11.3246 7.2697 11.3995L3.97887 13.1072C3.61322 13.297 3.18785 12.9879 3.25532 12.5815L3.86251 8.92404C3.88916 8.76356 3.83606 8.60016 3.72018 8.48598L1.07914 5.88393C0.785691 5.59481 0.948166 5.09476 1.35551 5.03334L5.02161 4.4806C5.18247 4.45635 5.32147 4.35535 5.39424 4.20986L7.05282 0.894007Z" fill="#FFB800"/>
</svg>
