<svg width="20" height="12" viewBox="0 0 20 12" fill="none" xmlns="http://www.w3.org/2000/svg">
<path d="M13.334 5.16675C14.7173 5.16675 15.8256 4.05008 15.8256 2.66675C15.8256 1.28341 14.7173 0.166748 13.334 0.166748C11.9507 0.166748 10.834 1.28341 10.834 2.66675C10.834 4.05008 11.9507 5.16675 13.334 5.16675ZM6.66732 5.16675C8.05065 5.16675 9.15898 4.05008 9.15898 2.66675C9.15898 1.28341 8.05065 0.166748 6.66732 0.166748C5.28398 0.166748 4.16732 1.28341 4.16732 2.66675C4.16732 4.05008 5.28398 5.16675 6.66732 5.16675ZM6.66732 6.83342C4.72565 6.83342 0.833984 7.80842 0.833984 9.75008V11.8334H12.5007V9.75008C12.5007 7.80842 8.60898 6.83342 6.66732 6.83342ZM13.334 6.83342C13.0923 6.83342 12.8173 6.85008 12.5257 6.87508C13.4923 7.57508 14.1673 8.51675 14.1673 9.75008V11.8334H19.1673V9.75008C19.1673 7.80842 15.2757 6.83342 13.334 6.83342Z" fill="#FF7751"/>
</svg>
