<svg width="16" height="17" viewBox="0 0 16 17" fill="none" xmlns="http://www.w3.org/2000/svg">
<path d="M7.5975 0C7.20687 0 6.81875 0.13125 6.48438 0.37125L5.44938 1.09375L4.25688 1.25H4.2375L4.21813 1.26938C3.82702 1.3577 3.46896 1.55505 3.18544 1.83857C2.90193 2.12209 2.70457 2.48015 2.61625 2.87125L2.5975 2.89062V2.91L2.44125 4.12125L1.71875 5.05875L1.69875 5.07812V5.0975C1.26187 5.79562 1.2425 6.69687 1.71875 7.36312L2.46062 8.39812L2.65625 9.47312L0.644375 12.5387L0 13.4963H2.98812L3.71062 15.1756L4.16 16.25L4.80437 15.2731L6.77687 12.3044C7.30687 12.5219 7.905 12.5419 8.41813 12.3044L10.3906 15.2731L11.035 16.25L11.4844 15.1756L12.2069 13.4963H15.195L14.5506 12.5387L12.5975 9.57063L12.7537 8.39875L13.4762 7.36375L13.4963 7.34438V7.325C13.9331 6.62688 13.9525 5.745 13.4762 5.07875L12.7537 4.04313L12.5194 2.87125H12.5387C12.5363 2.85625 12.5219 2.84625 12.5194 2.83188C12.4069 2.01438 11.76 1.35063 10.9375 1.25H10.9175L9.74562 1.09375L8.71062 0.37125C8.38738 0.134449 7.99818 0.00464285 7.5975 0Z" fill="#FF7751"/>
</svg>
