<svg width="18" height="18" viewBox="0 0 18 18" fill="none" xmlns="http://www.w3.org/2000/svg">
<path d="M8.55282 0.894007C8.73711 0.525576 9.26289 0.525576 9.44718 0.894007L11.8464 5.6905C11.9191 5.83599 12.0581 5.93698 12.219 5.96124L17.5221 6.7608C17.9295 6.82222 18.0919 7.32227 17.7985 7.61139L13.9782 11.3753C13.8623 11.4895 13.8092 11.6529 13.8358 11.8134L14.7141 17.1041C14.7816 17.5104 14.3562 17.8195 13.9906 17.6297L9.2303 15.1595C9.08591 15.0846 8.91409 15.0846 8.7697 15.1595L4.00941 17.6297C3.64376 17.8195 3.21839 17.5104 3.28586 17.1041L4.16418 11.8134C4.19082 11.6529 4.13773 11.4895 4.02185 11.3753L0.201501 7.61139C-0.0919499 7.32227 0.0705254 6.82222 0.477872 6.7608L5.781 5.96124C5.94186 5.93698 6.08086 5.83599 6.15363 5.6905L8.55282 0.894007Z" fill="#FF7751"/>
</svg>
