<svg width="18" height="19" viewBox="0 0 18 19" fill="none" xmlns="http://www.w3.org/2000/svg">
<path d="M6.75 0V1.5H11.25V0H6.75ZM9 2.25C4.45275 2.25 0.75 5.9535 0.75 10.5C0.75 15.0473 4.4535 18.75 9 18.75C13.5473 18.75 17.25 15.0465 17.25 10.5C17.25 8.3115 16.3973 6.3075 15 4.82775L16.2892 3.53925L15.21 2.46L13.8525 3.8205C12.4423 2.79602 10.7431 2.24607 9 2.25V2.25ZM9 3.75C12.735 3.75 15.75 6.765 15.75 10.5C15.75 14.235 12.735 17.25 9 17.25C5.265 17.25 2.25 14.235 2.25 10.5C2.25 6.765 5.265 3.75 9 3.75ZM8.25 5.25V9.21075C7.8015 9.47175 7.5 9.94575 7.5 10.5C7.5 11.0535 7.8015 11.5282 8.25 11.7892V12.75H9.75V11.7892C10.1985 11.5282 10.5 11.0543 10.5 10.5C10.5 9.9465 10.1985 9.47175 9.75 9.21075V5.25H8.25Z" fill="#FF7751"/>
</svg>
